<svg width="2156" height="363" viewBox="0 0 2156 363" fill="none" xmlns="http://www.w3.org/2000/svg">
<g filter="url(#filter0_d_49652_2136)">
<path d="M199 260C199 292.667 191.333 316.667 176 332C160.667 347.333 137 355 105 355C73.3333 355 39.6667 353.333 4 350V282.5C30 284.167 56.6667 285 84 285C91.6667 285 97.6667 282.833 102 278.5C106.667 273.833 109 267.667 109 260V70H44V-2.38419e-05H199V260ZM358.98 285C376.647 285 396.647 281.667 418.98 275V245H346.48C341.48 245 337.314 246.667 333.98 250C330.647 253.333 328.98 257.5 328.98 262.5V267.5C328.98 272.5 330.647 276.667 333.98 280C337.314 283.333 341.48 285 346.48 285H358.98ZM266.48 90C327.48 83.3333 382.48 80 431.48 80C454.147 80 472.314 86.8333 485.98 100.5C499.647 114.167 506.48 132.333 506.48 155V350H428.98L423.98 325C408.314 335.333 392.147 343 375.48 348C359.147 352.667 345.314 355 333.98 355H316.48C293.814 355 275.647 348.167 261.98 334.5C248.314 320.833 241.48 302.667 241.48 280V257.5C241.48 234.833 248.314 216.667 261.98 203C275.647 189.333 293.814 182.5 316.48 182.5H418.98V162.5C418.98 157.5 417.314 153.333 413.98 150C410.647 146.667 406.48 145 401.48 145C379.814 145 355.814 146 329.48 148C303.48 150 282.48 151.5 266.48 152.5V90ZM541.344 280C609.01 285 662.344 287.5 701.344 287.5C706.344 287.5 710.51 285.833 713.844 282.5C717.177 279.167 718.844 275 718.844 270V252.5H611.344C588.677 252.5 570.51 245.667 556.844 232C543.177 218.333 536.344 200.167 536.344 177.5V160C536.344 137.333 543.177 119.167 556.844 105.5C570.51 91.8333 588.677 85 611.344 85H781.344V150H641.344C636.344 150 632.177 151.667 628.844 155C625.51 158.333 623.844 162.5 623.844 167.5C623.844 172.5 625.51 176.667 628.844 180C632.177 183.333 636.344 185 641.344 185H731.344C754.01 185 772.177 191.833 785.844 205.5C799.51 219.167 806.344 237.333 806.344 260V280C806.344 302.667 799.51 320.833 785.844 334.5C772.177 348.167 754.01 355 731.344 355C672.344 355 609.01 351.667 541.344 345V280ZM1101.38 -2.38419e-05L1161.38 225L1213.88 -2.38419e-05H1311.38L1216.38 350H1121.38L1061.38 132.5L1001.38 350H906.383L811.383 -2.38419e-05H908.883L961.383 225L1021.38 -2.38419e-05H1101.38ZM1601.62 275C1601.62 300 1594.45 319.667 1580.12 334C1566.12 348 1546.62 355 1521.62 355H1406.62C1381.62 355 1361.95 348 1347.62 334C1333.62 319.667 1326.62 300 1326.62 275V160C1326.62 135 1333.62 115.5 1347.62 101.5C1361.95 87.1667 1381.62 80 1406.62 80H1521.62C1546.62 80 1566.12 87.1667 1580.12 101.5C1594.45 115.5 1601.62 135 1601.62 160V275ZM1514.12 167.5C1514.12 154.167 1507.45 147.5 1494.12 147.5H1434.12C1420.78 147.5 1414.12 154.167 1414.12 167.5V267.5C1414.12 280.833 1420.78 287.5 1434.12 287.5H1494.12C1507.45 287.5 1514.12 280.833 1514.12 267.5V167.5ZM1799.06 157.5C1778.06 157.5 1756.39 162.5 1734.06 172.5V350H1646.56V85H1724.06L1729.06 117.5C1757.73 92.5 1787.73 80 1819.06 80H1841.56V157.5H1799.06ZM1964.04 245V350H1876.54V-2.38419e-05H1964.04V177.5H2004.04L2059.04 85H2151.54L2076.54 212.5L2151.54 350H2059.04L2001.54 245H1964.04Z" fill="#B3EBF1"/>
</g>
<defs>
<filter id="filter0_d_49652_2136" x="0" y="0" width="2155.54" height="363" filterUnits="userSpaceOnUse" color-interpolation-filters="sRGB">
<feFlood flood-opacity="0" result="BackgroundImageFix"/>
<feColorMatrix in="SourceAlpha" type="matrix" values="0 0 0 0 0 0 0 0 0 0 0 0 0 0 0 0 0 0 127 0" result="hardAlpha"/>
<feOffset dy="4"/>
<feGaussianBlur stdDeviation="2"/>
<feComposite in2="hardAlpha" operator="out"/>
<feColorMatrix type="matrix" values="0 0 0 0 0 0 0 0 0 0 0 0 0 0 0 0 0 0 1 0"/>
<feBlend mode="normal" in2="BackgroundImageFix" result="effect1_dropShadow_49652_2136"/>
<feBlend mode="normal" in="SourceGraphic" in2="effect1_dropShadow_49652_2136" result="shape"/>
</filter>
</defs>
</svg>
